<svg xmlns="http://www.w3.org/2000/svg" viewBox="0 0 512 512" role="img" aria-labelledby="title desc">
  <title id="title">Kalypt K monogram</title>
  <desc id="desc">A folded charcoal K with cyan inner edges.</desc>
  <defs>
    <linearGradient id="p" x1="0" y1="0" x2="1" y2="1"><stop stop-color="#3a4654"/><stop offset="1" stop-color="#10161d"/></linearGradient>
    <linearGradient id="q" x1="1" y1="0" x2="0" y2="1"><stop stop-color="#2d3844"/><stop offset="1" stop-color="#0d1218"/></linearGradient>
    <linearGradient id="c" x1="0" y1="0" x2="1" y2="1"><stop stop-color="#43f4ff"/><stop offset="1" stop-color="#12b8ca"/></linearGradient>
    <filter id="g" x="-60%" y="-60%" width="220%" height="220%"><feGaussianBlur stdDeviation="7" result="b"/><feMerge><feMergeNode in="b"/><feMergeNode in="SourceGraphic"/></feMerge></filter>
  </defs>
  <rect x="90" y="60" width="94" height="392" rx="42" fill="url(#p)"/>
  <path d="M172 225 349 66c18-16 47-15 64 3 16 19 14 47-4 63L246 276Z" fill="url(#q)"/>
  <path d="M173 289 246 230l164 148c18 16 20 44 4 63-17 19-46 21-65 4L173 289Z" fill="url(#p)"/>
  <path d="M176 238 229 285 184 323V226Z" fill="url(#c)" filter="url(#g)" opacity=".95"/>
  <path d="M235 270 353 165" stroke="#39effa" stroke-width="7" stroke-linecap="round" opacity=".88"/>
  <path d="M237 288 354 394" stroke="#20d2df" stroke-width="6" stroke-linecap="round" opacity=".75"/>
</svg>
